<svg width="20" height="20" viewBox="0 0 20 20" fill="none" xmlns="http://www.w3.org/2000/svg">
<path d="M4.36428 6.76611H0.237793V19.9969H4.36428V6.76611Z" fill="#F9480B"/>
<path d="M18.6753 7.97435C18.2388 7.47138 17.7054 7.07544 17.1118 6.81383C16.5181 6.55222 15.8785 6.43115 15.2368 6.45899C14.7524 6.45281 14.2699 6.52249 13.8044 6.66577C13.4107 6.78433 13.0414 6.98119 12.7161 7.246C12.2377 7.62711 11.8324 8.10277 11.5222 8.64714V6.76608H7.41309L7.42608 7.40649C7.43475 7.83342 7.43909 9.15072 7.43909 11.3584C7.43909 13.5661 7.4309 16.4466 7.41452 19.9999H11.528V12.6161C11.5183 12.2499 11.5672 11.8846 11.6725 11.5359C11.8419 11.0895 12.115 10.6965 12.466 10.394C12.841 10.0783 13.3084 9.91427 13.7856 9.93102C14.091 9.90705 14.3969 9.9676 14.674 10.1068C14.951 10.246 15.1896 10.4592 15.3669 10.7257C15.7371 11.3873 15.9133 12.1521 15.8727 12.9216V19.9907H19.9862V12.4139C20.0908 10.8103 19.6223 9.22399 18.6753 7.97435V7.97435Z" fill="#F9480B"/>
<path d="M2.32681 0.00278852C1.70799 -0.0258478 1.10353 0.20701 0.644415 0.650902C0.434543 0.858809 0.268616 1.11211 0.157706 1.39391C0.0467946 1.67571 -0.00654966 1.97952 0.00123223 2.28507C-0.00567992 2.5879 0.0463763 2.88897 0.154105 3.1692C0.261834 3.44944 0.422888 3.70274 0.62707 3.91307C0.847072 4.13469 1.10656 4.30681 1.39012 4.41921C1.67368 4.53161 1.97551 4.58199 2.27766 4.56736H2.30224C2.92577 4.59745 3.53501 4.36213 3.99619 3.91307C4.20469 3.70604 4.36891 3.45344 4.47766 3.17249C4.58641 2.89154 4.63713 2.58885 4.62636 2.28507C4.63061 1.98037 4.57623 1.67798 4.46659 1.39662C4.35695 1.11527 4.19439 0.860929 3.98896 0.649358C3.76602 0.429122 3.50421 0.258516 3.21882 0.147502C2.93344 0.0364889 2.6302 -0.0127064 2.32681 0.00278852Z" fill="#F9480B"/>
</svg>
