<svg width="50" height="50" viewBox="0 0 50 50" fill="none" xmlns="http://www.w3.org/2000/svg">
<path d="M14.0347 46.7662C15.5579 45.1133 15.5579 42.4557 14.0023 40.8028L13.9699 40.7704C22.3316 31.2744 31.2767 22.2969 40.8051 13.9676C42.5552 15.6205 45.3425 15.5881 47.0278 13.7731C48.3242 12.3795 48.5186 10.2729 47.6112 8.65237C47.3519 8.49032 47.0926 8.39309 46.8009 8.29586C45.8286 7.97176 45.0508 7.29116 44.5647 6.4161C43.6896 5.96236 43.009 5.18453 42.6849 4.17982C42.5877 3.88814 42.458 3.62886 42.3284 3.36958C40.7079 2.46211 38.6013 2.65656 37.2076 3.95295C35.3927 5.63826 35.3279 8.4255 37.0132 10.1756C28.6839 19.7041 19.7064 28.6492 10.2103 37.0109L10.1779 36.9785C8.52502 35.4228 5.86744 35.4228 4.21454 36.9461C2.69128 38.3721 2.39958 40.6084 3.37187 42.3261C3.63115 42.4557 3.85802 42.5854 4.11729 42.6826C5.08959 43.0067 5.89983 43.6873 6.38598 44.5948C7.29345 45.0809 7.97406 45.8587 8.29816 46.8635C8.39539 47.1227 8.49261 47.382 8.65466 47.6089C10.3724 48.5812 12.6087 48.3219 14.0347 46.7662Z" fill="#F4B213"/>
<path d="M10.8257 49.0025C9.43203 49.0025 8.13565 48.4515 7.16335 47.4792C6.57998 46.8959 6.19107 46.2477 5.93179 45.4698C5.60769 44.4975 4.86227 43.7521 3.88998 43.428C3.14456 43.1687 2.46395 42.7474 1.88057 42.1964C0.87587 41.1917 0.3249 39.8629 0.35731 38.4369C0.38972 37.0109 0.973087 35.7145 2.0102 34.7422C2.95008 33.8671 4.21407 33.381 5.54287 33.381C6.6448 33.381 7.68191 33.7051 8.55697 34.3209C17.6317 26.2833 26.2851 17.6299 34.3227 8.52272C33.6745 7.61525 33.3504 6.51332 33.3828 5.34657C33.4152 3.95295 34.031 2.65656 35.0357 1.71668C35.9756 0.841616 37.2396 0.355469 38.5684 0.355469C39.8972 0.355469 41.1612 0.841616 42.101 1.74909C42.7492 2.33246 43.203 3.1103 43.4947 3.92054C43.7864 4.86042 44.4994 5.57344 45.4392 5.86512C46.2495 6.1244 47.0273 6.61055 47.6107 7.25874C49.4581 9.23574 49.4581 12.3471 47.6431 14.3241C46.6708 15.3936 45.2772 15.977 43.8512 15.977C42.7817 15.977 41.7121 15.6529 40.8695 15.0371C31.7623 23.0423 23.109 31.6957 15.0713 40.8028C16.465 42.7798 16.3353 45.5346 14.65 47.3496C13.6453 48.3867 12.2517 49.0025 10.8257 49.0025ZM5.54287 35.0015C4.6354 35.0015 3.76033 35.3256 3.11214 35.9414C2.39912 36.622 1.9778 37.497 1.9778 38.5017C1.94539 39.474 2.33431 40.4139 3.01491 41.0945C3.40383 41.4834 3.85757 41.7751 4.37613 41.9372C5.83456 42.4233 6.93648 43.5252 7.42263 44.9837C7.58468 45.5022 7.87638 45.956 8.26529 46.3449C8.9459 47.0255 9.82096 47.382 10.7932 47.382C11.798 47.382 12.7378 46.9607 13.4184 46.2477C14.65 44.9189 14.65 42.7474 13.4184 41.4186C13.386 41.3862 13.386 41.3862 13.3536 41.3538C13.0619 41.0621 13.0619 40.576 13.3212 40.2519C21.6829 30.7558 30.7252 21.7135 40.2213 13.3842C40.5454 13.0925 40.9991 13.1249 41.3232 13.4166C42.0038 14.0648 42.8465 14.3889 43.7864 14.3889C44.7911 14.3889 45.7309 13.9676 46.4115 13.2545C47.6431 11.9257 47.6431 9.72188 46.4115 8.39309C45.9902 7.97176 45.4717 7.61525 44.9207 7.4532C43.4947 6.99947 42.3927 5.89754 41.939 4.47151C41.7445 3.92054 41.4205 3.40198 40.9991 2.98066C40.3509 2.36487 39.4759 2.04078 38.5684 2.04078C37.6609 2.04078 36.7859 2.36487 36.1377 2.98066C35.4247 3.62885 35.0357 4.53633 35.0033 5.47621C34.9709 6.4485 35.3274 7.35597 35.9756 8.03658C36.2673 8.32827 36.2673 8.81441 36.008 9.13851C27.6787 18.6346 18.6364 27.7093 9.14034 36.0386C8.81624 36.3303 8.36252 36.2979 8.03842 36.0062C8.03842 36.0062 8.00601 35.9738 7.9736 35.9414C7.3254 35.3256 6.45034 35.0015 5.54287 35.0015Z" fill="#0D1A20"/>
</svg>
