<svg width="50" height="50" viewBox="0 0 50 50" fill="none" xmlns="http://www.w3.org/2000/svg">
<path d="M24.7899 7.30249L11.4146 16.506V47.6196H41.3817L41.6365 18.7034L24.7899 7.30249Z" fill="#F4B213"/>
<path d="M41.3825 48.4157H31.7968C31.351 48.4157 31.0007 48.0654 31.0007 47.6195V33.862C31.0007 30.4226 28.1982 27.652 24.7907 27.652C21.3513 27.652 18.5807 30.4545 18.5807 33.862V47.6195C18.5807 48.0654 18.2304 48.4157 17.7845 48.4157H8.19886C7.75302 48.4157 7.40271 48.0654 7.40271 47.6195V20.0727L4.12257 22.3019C3.93149 22.4293 3.70857 22.4611 3.51749 22.4293C3.29457 22.3974 3.10349 22.27 3.00795 22.079L1.03349 18.8943C0.810571 18.544 0.906109 18.0664 1.25642 17.8116L24.3448 2.14331C24.5996 1.95223 24.9818 1.95223 25.2365 2.14331L48.3249 17.8116C48.6753 18.0664 48.7708 18.5122 48.5479 18.8943L46.5734 22.079C46.446 22.27 46.2868 22.3974 46.0639 22.4293C45.841 22.4611 45.618 22.4293 45.4588 22.3019L42.1786 20.0727V47.6195C42.1786 48.0654 41.8283 48.4157 41.3825 48.4157ZM32.6248 46.8234H40.6182V18.5759C40.6182 18.2893 40.7774 18.0027 41.0322 17.8753C41.287 17.7479 41.6054 17.7479 41.8602 17.939L45.6817 20.5503L46.8282 18.7033L24.8225 3.76745L2.81687 18.7033L3.96333 20.5503L7.78487 17.939C8.03964 17.7797 8.3581 17.7479 8.61286 17.8753C8.86763 18.0027 9.02687 18.2893 9.02687 18.5759V46.8234H17.0202V33.862C17.0202 29.5628 20.5233 26.0597 24.8225 26.0597C29.1217 26.0597 32.6248 29.5628 32.6248 33.862V46.8234Z" fill="#0D1A20"/>
<path d="M8.42099 19.3721L7.5293 18.0664L24.344 6.66552C24.5988 6.47445 24.981 6.47445 25.2357 6.66552L42.0505 18.0664L41.1588 19.3721L24.7899 8.25783L8.42099 19.3721Z" fill="#0D1A20"/>
<path d="M47.879 46.8232H1.70215V48.4155H47.879V46.8232Z" fill="#0D1A20"/>
<path d="M37.5606 40.8999H35.9683V47.6194H37.5606V40.8999Z" fill="#0D1A20"/>
<path d="M13.7393 40.8999H12.147V47.6194H13.7393V40.8999Z" fill="#0D1A20"/>
<path d="M30.0761 16.9199H19.5669V22.1745H30.0761V16.9199Z" fill="#0D1A20"/>
</svg>
