<svg width="15" height="13" viewBox="0 0 15 13" fill="none" xmlns="http://www.w3.org/2000/svg">
<path d="M10.4215 4.27526C9.02909 4.34838 7.81828 4.77267 6.83526 5.73124C5.84205 6.6997 5.38866 7.88644 5.51259 9.35757C4.96834 9.28982 4.47263 9.21525 3.9741 9.17305C3.80193 9.15849 3.59761 9.17918 3.45177 9.2619C2.96767 9.53647 2.50359 9.84648 1.95353 10.1921C2.05446 9.73324 2.11979 9.33144 2.23543 8.94496C2.32049 8.6609 2.28109 8.50281 2.02076 8.31783C0.349258 7.13162 -0.355319 5.35638 0.171964 3.52871C0.659797 1.83792 1.85778 0.812518 3.48558 0.277997C5.70737 -0.451499 8.20427 0.292622 9.55529 2.06573C10.0432 2.7062 10.3424 3.42506 10.4215 4.27526ZM4.01309 3.70576C4.02592 3.37148 3.73775 3.07032 3.39547 3.06026C3.04502 3.04991 2.75679 3.31911 2.74656 3.66622C2.73621 4.01802 3.0039 4.29994 3.35688 4.30896C3.70681 4.31786 4.00015 4.04831 4.01309 3.70576ZM7.35662 3.06003C7.01307 3.06638 6.72277 3.36049 6.72887 3.69611C6.73514 4.04398 7.01991 4.31612 7.37318 4.31185C7.72736 4.30757 7.99598 4.03253 7.99264 3.67732C7.98971 3.32864 7.7062 3.05361 7.35662 3.06003Z" fill="#BA723D"/>
<path d="M13.55 13C13.1091 12.8026 12.7046 12.5065 12.274 12.4613C11.8451 12.4163 11.3942 12.665 10.9454 12.7112C9.57837 12.8518 8.3537 12.4688 7.34387 11.5301C5.42331 9.74452 5.69773 7.00665 7.91975 5.54338C9.8946 4.24289 12.7908 4.67643 14.1832 6.48092C15.3983 8.05552 15.2555 10.1457 13.7721 11.4685C13.3429 11.8514 13.1884 12.1664 13.4638 12.6711C13.5147 12.7643 13.5205 12.8823 13.55 13V13ZM8.53111 8.11552C8.8118 8.11581 9.04292 7.895 9.05356 7.61632C9.06477 7.32129 8.8287 7.07382 8.53479 7.07261C8.2438 7.07128 8.00003 7.32221 8.01015 7.61285C8.01969 7.89055 8.25243 8.11518 8.53111 8.11552ZM11.7665 7.07377C11.4942 7.07186 11.2628 7.29597 11.2517 7.57256C11.2399 7.86835 11.4686 8.11125 11.7598 8.112C12.0415 8.11292 12.264 7.89881 12.2742 7.61707C12.2852 7.32059 12.0563 7.07579 11.7665 7.07377V7.07377Z" fill="#BA723D"/>
</svg>
