<svg width="15" height="16" viewBox="0 0 15 16" fill="none" xmlns="http://www.w3.org/2000/svg">
<path d="M13.9378 9.36C13.8538 9.25874 13.7507 9.17504 13.6344 9.11369C13.518 9.05234 13.3907 9.01454 13.2597 9.00246C13.1287 8.99039 12.9967 9.00427 12.8711 9.04331C12.7455 9.08236 12.6288 9.1458 12.5278 9.23L8.16775 12.86V1C8.16775 0.734784 8.0624 0.48043 7.87486 0.292893C7.68732 0.105357 7.43297 0 7.16775 0C6.90254 0 6.64818 0.105357 6.46065 0.292893C6.27311 0.48043 6.16775 0.734784 6.16775 1V12.86L1.80775 9.23C1.70664 9.14595 1.58995 9.08265 1.46437 9.0437C1.33879 9.00474 1.20676 8.99091 1.07583 9.00298C0.944899 9.01505 0.817628 9.05279 0.701284 9.11405C0.584939 9.17531 0.481799 9.25888 0.397753 9.36C0.313707 9.46112 0.250401 9.5778 0.211449 9.70338C0.172497 9.82897 0.158661 9.96099 0.170733 10.0919C0.182804 10.2229 0.220546 10.3501 0.281804 10.4665C0.343062 10.5828 0.426636 10.686 0.527753 10.77L6.52775 15.77L6.67775 15.86L6.80775 15.93C7.03943 16.0194 7.29608 16.0194 7.52775 15.93L7.65775 15.86L7.80775 15.77L13.8078 10.77C13.909 10.6861 13.9927 10.583 14.0541 10.4666C14.1154 10.3503 14.1532 10.2229 14.1653 10.092C14.1774 9.96099 14.1635 9.82892 14.1244 9.70332C14.0854 9.57772 14.022 9.46105 13.9378 9.36V9.36Z" fill="#0D1A20"/>
</svg>
