<svg width="16" height="12" viewBox="0 0 16 12" fill="none" xmlns="http://www.w3.org/2000/svg">
<path fill-rule="evenodd" clip-rule="evenodd" d="M5.81113 9.68899L14.3646 1.00005L15.1665 1.81462L6.52377 10.5942C6.13201 10.9922 5.49024 10.9922 5.09848 10.5942L0.999805 6.43064L1.80169 5.61605L5.81113 9.68899ZM5.81113 9.4039L14.2221 0.859743C14.2596 0.821554 14.311 0.800049 14.3646 0.800049C14.4182 0.800049 14.4695 0.821554 14.5071 0.859743L15.309 1.67433C15.3856 1.75217 15.3856 1.8771 15.309 1.95494L6.66629 10.7345C6.19619 11.2121 5.42606 11.2121 4.95596 10.7345L0.857277 6.57094C0.780647 6.4931 0.780647 6.36817 0.857277 6.29033L1.65916 5.47574C1.69676 5.43755 1.7481 5.41605 1.80169 5.41605C1.85528 5.41605 1.90663 5.43755 1.94422 5.47574L5.81113 9.4039Z" fill="white"/>
</svg>
