<svg width="14" height="13" viewBox="0 0 14 13" fill="none" xmlns="http://www.w3.org/2000/svg">
<path d="M3.05504 4.39795H0.166504V12.9979H3.05504V4.39795Z" fill="#BA723D"/>
<path d="M13.072 5.18332C12.7665 4.85639 12.3931 4.59903 11.9775 4.42899C11.562 4.25894 11.1142 4.18025 10.6651 4.19834C10.326 4.19433 9.98821 4.23961 9.66242 4.33275C9.38679 4.40981 9.12831 4.53777 8.90056 4.70989C8.56573 4.95762 8.28202 5.26679 8.06486 5.62063V4.39795H5.18848L5.19757 4.81421C5.20364 5.09172 5.20668 5.94795 5.20668 7.38295C5.20668 8.81794 5.20095 10.6903 5.18948 12.9999H8.06892V8.20041C8.06215 7.96237 8.09636 7.72494 8.17008 7.4983C8.28866 7.20814 8.47981 6.9527 8.72553 6.75606C8.98798 6.55084 9.31519 6.44425 9.64926 6.45515C9.863 6.43956 10.0772 6.47892 10.2711 6.56941C10.465 6.6599 10.632 6.79847 10.7561 6.9717C11.0153 7.40172 11.1386 7.89886 11.1102 8.39901V12.9939H13.9896V8.06902C14.0628 7.02669 13.7349 5.99558 13.072 5.18332V5.18332Z" fill="#BA723D"/>
<path d="M1.62842 0.00181252C1.19525 -0.0168009 0.77213 0.134555 0.450748 0.423083C0.303838 0.558221 0.187689 0.722866 0.110052 0.906033C0.0324144 1.0892 -0.00492655 1.28668 0.000520763 1.48528C-0.00431773 1.68212 0.0321216 1.87781 0.107532 2.05996C0.182942 2.24212 0.295679 2.40676 0.438607 2.54347C0.592608 2.68752 0.774252 2.7994 0.972741 2.87246C1.17123 2.94552 1.38251 2.97827 1.59402 2.96876H1.61122C2.0477 2.98832 2.47416 2.83536 2.79699 2.54347C2.94293 2.4089 3.05789 2.24471 3.13402 2.0621C3.21014 1.87948 3.24565 1.68274 3.23811 1.48528C3.24108 1.28723 3.20301 1.09068 3.12627 0.907797C3.04952 0.724916 2.93573 0.559599 2.79193 0.422079C2.63587 0.278927 2.4526 0.168034 2.25283 0.0958756C2.05306 0.0237176 1.84079 -0.00825909 1.62842 0.00181252Z" fill="#BA723D"/>
</svg>
