<svg width="50" height="50" viewBox="0 0 50 50" fill="none" xmlns="http://www.w3.org/2000/svg">
<path d="M9.54248 6.8026C9.54248 14.333 9.54248 21.8633 9.54248 29.3937C20.7565 35.2941 31.9706 22.4501 43.1521 28.3505C43.1521 20.8202 43.1521 13.2898 43.1521 5.75944C31.9706 -0.140985 20.7565 12.703 9.54248 6.8026Z" fill="#F4B213"/>
<path d="M16.1281 31.8061C13.5854 31.8061 11.3361 31.2519 9.18453 30.111C8.92373 29.9806 8.76074 29.6872 8.76074 29.3938V6.80266C8.76074 6.50927 8.92373 6.24848 9.15192 6.11808C9.38012 5.98769 9.70611 5.95509 9.9669 6.08548C11.8902 7.09605 13.9114 7.58504 16.1607 7.58504C19.4532 7.58504 22.8435 6.54187 26.1686 5.4987C29.5915 4.45553 33.1122 3.34717 36.6329 3.34717C39.1756 3.34717 41.4249 3.90135 43.5765 5.04232C43.8373 5.17271 44.0003 5.4661 44.0003 5.75949V28.3506C44.0003 28.644 43.8373 28.9048 43.6091 29.0352C43.3483 29.1982 43.0549 29.1982 42.7941 29.0678C40.8708 28.0572 38.8496 27.5682 36.6003 27.5682C33.3078 27.5682 29.9175 28.6114 26.5924 29.6546C23.2021 30.7303 19.6488 31.8061 16.1281 31.8061ZM10.3581 28.9048C12.151 29.7524 14.0418 30.1761 16.1281 30.1761C19.4206 30.1761 22.8109 29.133 26.136 28.0898C29.5589 27.0466 33.0796 25.9383 36.6003 25.9383C38.654 25.9383 40.5774 26.2969 42.3703 27.0466V6.24848C40.5774 5.40091 38.6866 4.97712 36.6003 4.97712C33.3078 4.97712 29.9175 6.02029 26.5924 7.06346C23.1695 8.10662 19.6488 9.21499 16.1281 9.21499C14.0744 9.21499 12.151 8.8564 10.3581 8.10662V28.9048Z" fill="#0D1A20"/>
<path d="M9.54248 6.80273C9.54248 8.66088 9.54248 10.5516 9.54248 12.4098C11.4006 13.3877 13.2914 13.8441 15.1495 13.9745C15.1495 12.1164 15.1495 10.2256 15.1495 8.36749C13.2914 8.26969 11.4332 7.7807 9.54248 6.80273Z" fill="#0D1A20"/>
<path d="M15.1494 13.9745C15.1494 15.8326 15.1494 17.7234 15.1494 19.5815C17.0076 19.7119 18.8983 19.4511 20.7564 19.0599C20.7564 17.2018 20.7564 15.311 20.7564 13.4529C18.8983 13.8767 17.0076 14.1049 15.1494 13.9745Z" fill="#0D1A20"/>
<path d="M9.54248 18.2124C9.54248 20.0705 9.54248 21.9613 9.54248 23.8194C11.4006 24.7974 13.2914 25.2538 15.1495 25.3842C15.1495 23.526 15.1495 21.6353 15.1495 19.7772C13.2914 19.6468 11.4332 19.1904 9.54248 18.2124Z" fill="#0D1A20"/>
<path d="M15.1494 25.3841C15.1494 27.2423 15.1494 29.133 15.1494 30.9912C17.0076 31.1216 18.8983 30.8608 20.7564 30.4696C20.7564 28.6114 20.7564 26.7207 20.7564 24.8625C18.8983 25.2537 17.0076 25.4819 15.1494 25.3841Z" fill="#0D1A20"/>
<path d="M20.7563 7.84576C20.7563 9.7039 20.7563 11.5946 20.7563 13.4528C22.6145 13.0616 24.5052 12.4748 26.3634 11.888C26.3634 10.0299 26.3634 8.13915 26.3634 6.28101C24.5052 6.86779 22.6145 7.45457 20.7563 7.84576Z" fill="#0D1A20"/>
<path d="M26.3633 11.888C26.3633 13.7461 26.3633 15.6369 26.3633 17.495C28.2214 16.9082 30.1122 16.3215 31.9703 15.9303C31.9703 14.0721 31.9703 12.1814 31.9703 10.3232C30.1122 10.747 28.2214 11.3012 26.3633 11.888Z" fill="#0D1A20"/>
<path d="M20.7563 19.2554C20.7563 21.1136 20.7563 23.0043 20.7563 24.8625C22.6145 24.4713 24.5052 23.8845 26.3634 23.2977C26.3634 21.4396 26.3634 19.5488 26.3634 17.6907C24.5052 18.2449 22.6145 18.8316 20.7563 19.2554Z" fill="#0D1A20"/>
<path d="M26.3633 23.2977C26.3633 25.1558 26.3633 27.0465 26.3633 28.9047C28.2214 28.3179 30.1122 27.7311 31.9703 27.3399C31.9703 25.4818 31.9703 23.5911 31.9703 21.7329C30.1122 22.1241 28.2214 22.7109 26.3633 23.2977Z" fill="#0D1A20"/>
<path d="M31.9717 4.71629C31.9717 6.57443 31.9717 8.46518 31.9717 10.3233C33.8298 9.93213 35.7206 9.67134 37.5787 9.80174C37.5787 7.94359 37.5787 6.05285 37.5787 4.19471C35.688 4.09691 33.8298 4.3251 31.9717 4.71629Z" fill="#0D1A20"/>
<path d="M37.5786 9.80176C37.5786 11.6599 37.5786 13.5506 37.5786 15.4088C39.4368 15.5392 41.3275 15.9956 43.1856 16.9735C43.1856 15.1154 43.1856 13.2247 43.1856 11.3665C41.2949 10.3885 39.4368 9.93215 37.5786 9.80176Z" fill="#0D1A20"/>
<path d="M31.9717 16.1261C31.9717 17.9842 31.9717 19.875 31.9717 21.7331C33.8298 21.3419 35.7206 21.0811 37.5787 21.2115C37.5787 19.3534 37.5787 17.4626 37.5787 15.6045C35.688 15.4741 33.8298 15.7023 31.9717 16.1261Z" fill="#0D1A20"/>
<path d="M37.5786 21.2114C37.5786 23.0696 37.5786 24.9603 37.5786 26.8185C39.4368 26.9489 41.3275 27.4052 43.1856 28.3832C43.1856 26.5251 43.1856 24.6343 43.1856 22.7762C41.2949 21.7656 39.4368 21.3092 37.5786 21.2114Z" fill="#0D1A20"/>
<path d="M9.54321 2.62988H7.68506V48.2685H9.54321V2.62988Z" fill="#0D1A20"/>
<path d="M8.63044 4.2599C9.53064 4.2599 10.2604 3.53015 10.2604 2.62995C10.2604 1.72975 9.53064 1 8.63044 1C7.73024 1 7.00049 1.72975 7.00049 2.62995C7.00049 3.53015 7.73024 4.2599 8.63044 4.2599Z" fill="#0D1A20"/>
</svg>
