<svg width="50" height="50" viewBox="0 0 50 50" fill="none" xmlns="http://www.w3.org/2000/svg">
<path d="M48.6976 17.3076C48.2303 17.0392 47.6629 17.2405 47.4293 17.7102C46.7284 19.0523 45.2266 21.4008 43.124 21.4008C40.187 21.4008 38.1178 18.7839 38.1178 18.7839V18.8174C34.1796 13.9862 27.7049 13.7513 24.4341 14.0533C21.0299 14.3888 15.1226 16.0663 13.2536 9.893C13.4205 9.79235 13.6207 9.6917 13.821 9.5575C15.156 8.75228 13.8877 6.1689 13.8877 6.1689C13.8877 6.1689 11.2177 4.25653 8.31415 4.99464C6.27829 5.49789 4.2758 7.20897 4.2758 7.20897C4.2758 7.20897 4.07555 8.58453 3.90868 8.78584C3.74181 8.98714 0.871582 11.4028 0.871582 11.4028C0.871582 11.4028 1.57245 12.6777 2.57369 13.0467C3.57493 13.4158 8.01377 11.906 8.01377 11.906C8.01377 11.906 8.94827 15.563 9.98288 19.9246C10.9841 24.2526 11.7184 26.2656 14.0212 29.1174C16.3241 31.9692 15.1226 44.2486 15.1226 44.2486C15.1226 44.2486 14.9223 44.8525 14.3216 44.8525C13.7209 44.8525 12.5194 45.188 13.02 46.161H15.7567C15.7567 46.161 17.3253 45.49 17.3253 42.2356C17.3253 39.6522 19.8284 33.1099 19.0274 28.6141C20.2623 28.547 22.4984 28.0438 24.7679 25.7288C28.1387 22.3067 32.4107 23.2461 32.4107 23.2461C32.4107 23.2461 33.4119 26.9366 35.0807 30.9291C36.7494 34.9216 41.8557 36.3307 42.8904 38.8135C43.925 41.2962 43.4911 43.9802 43.4911 43.9802C43.4911 43.9802 43.3576 44.7519 42.4565 44.7519C41.5887 44.7519 40.3205 45.4564 40.9212 46.1275H43.4244C43.4244 46.1275 45.6271 46.1275 45.6271 43.0408C45.6271 39.9542 45.2933 35.2571 45.2933 35.2571C45.2933 35.2571 42.4565 33.9487 40.2871 29.8555C40.2871 29.8555 41.6555 26.8695 40.3872 22.9106C41.6221 23.2796 44.5591 23.6822 46.5949 22.0383C47.9299 20.9646 48.7309 19.4213 49.0981 18.5155C49.2983 18.0458 49.1314 17.5425 48.6976 17.3076Z" fill="#F4B213"/>
<path d="M15.7236 47H12.9868C12.6865 47 12.3861 46.8322 12.2526 46.5638C11.8521 45.8257 12.0523 45.2554 12.2192 44.987C12.6531 44.2824 13.5876 44.014 14.2884 44.014C14.7223 39.384 14.8224 31.4997 13.3539 29.6544C10.9843 26.702 10.2167 24.5883 9.14873 20.1261C8.44786 17.073 7.74699 14.3554 7.41325 13.0134C5.77788 13.5167 3.24141 14.1877 2.27354 13.8522C1.0053 13.416 0.204305 11.9734 0.104181 11.8056C-0.0960672 11.4701 0.00405652 11.0004 0.304429 10.7655C1.50592 9.75903 2.84091 8.61831 3.20803 8.28281C3.27478 8.08151 3.3749 7.5447 3.44165 7.10854C3.47503 6.90724 3.57515 6.70594 3.74203 6.57174C3.84215 6.50464 5.94476 4.72646 8.11411 4.18966C11.3515 3.38445 14.2551 5.39747 14.3552 5.49812C14.4553 5.56522 14.5554 5.69943 14.6222 5.80008C14.7891 6.13558 16.1908 9.08802 14.2551 10.2623C13.6877 10.5978 12.7532 11.2017 11.7853 10.7991C10.9176 10.43 10.3502 9.42352 9.8496 7.4105L11.485 7.00789C11.9522 8.98737 12.3861 9.18867 12.4195 9.22222C12.4862 9.25577 12.7198 9.22222 13.3873 8.81962C13.7878 8.58476 13.5208 7.44405 13.2204 6.70594C12.6197 6.33688 10.6172 5.26327 8.51461 5.76653C7.0795 6.10203 5.61101 7.17565 5.04364 7.6118C4.84339 8.92027 4.60977 9.18867 4.50964 9.28932C4.34277 9.49062 3.14128 10.4971 1.97317 11.5036C2.20679 11.8056 2.54054 12.1076 2.84091 12.2082C3.34153 12.3424 5.77788 11.7385 7.74699 11.0675C7.98062 11.0004 8.21424 11.0004 8.41449 11.1346C8.61474 11.2352 8.78161 11.4365 8.81499 11.6714C8.81499 11.705 9.78285 15.3955 10.7841 19.6899C11.7853 23.9509 12.4862 25.8297 14.6556 28.5473C17.0919 31.6004 16.0573 42.9739 15.9572 44.2824C15.9572 44.3495 15.9238 44.3831 15.9238 44.4502C15.8571 44.685 15.6568 45.0205 15.3564 45.2889H15.5233C15.7903 45.0876 16.4912 44.316 16.4912 42.2023C16.4912 41.1622 16.8249 39.6525 17.2254 37.9078C18.0932 34.016 19.2946 28.715 17.1587 26.2658L18.3935 25.1587C21.1303 28.2453 19.7953 34.0495 18.8608 38.2769C18.4937 39.9209 18.1599 41.33 18.1599 42.2023C18.1599 45.8928 16.3243 46.7987 16.0907 46.8993C15.9572 46.9664 15.8571 47 15.7236 47Z" fill="#0D1A20"/>
<path d="M40.9219 46.9999C40.6883 46.9999 40.4547 46.8992 40.2878 46.6979C39.9207 46.2618 39.8206 45.6914 40.0542 45.2217C40.4213 44.4165 41.5561 43.9133 42.4572 43.9133C42.5573 43.9133 42.624 43.9132 42.6574 43.8126C42.6908 43.5106 42.9912 41.2292 42.1234 39.1491C41.7563 38.2768 40.5548 37.4045 39.2866 36.4986C37.4176 35.1901 35.315 33.6804 34.3137 31.2312C32.9787 28.0775 32.111 25.1586 31.7773 23.9843C30.6425 23.8836 27.7723 23.8836 25.3693 26.2993C22.8662 28.8156 20.3631 29.3524 19.0949 29.4195L18.9947 27.7419C20.0294 27.6748 22.0986 27.2387 24.2012 25.125C27.839 21.4345 32.4448 22.3739 32.6116 22.4074C32.912 22.4745 33.1456 22.7094 33.2457 23.0113C33.2457 23.0449 34.247 26.7019 35.8823 30.5602C36.7167 32.5732 38.6191 33.9152 40.2878 35.0895C41.7563 36.1296 43.1247 37.1025 43.692 38.4445C44.8268 41.1286 44.3595 43.9804 44.3262 44.081C44.2594 44.4165 44.0258 44.9198 43.5252 45.2553C43.8589 45.2217 44.7934 44.8862 44.7934 43.0074C44.7934 40.5582 44.5598 36.9683 44.493 35.7269C43.5585 35.1566 41.3224 33.5797 39.5536 30.1911C39.4201 29.9563 39.4201 29.6879 39.5202 29.453C39.5869 29.2853 41.4893 24.9237 37.9516 19.9247C34.0467 14.3553 26.6709 14.6237 24.5016 14.825C24.1011 14.8586 23.6672 14.9257 23.1666 14.9928C19.8291 15.4289 14.2889 16.1671 12.4199 10.0609L14.0219 9.55762C15.3569 13.9527 18.6944 13.8856 22.9663 13.3153C23.467 13.2482 23.9008 13.1811 24.3347 13.1475C26.7377 12.9127 34.8477 12.6443 39.2866 18.9517C42.7909 23.9172 41.6228 28.3794 41.1556 29.755C43.1247 33.2778 45.561 34.452 45.5944 34.452C45.8614 34.5862 46.0616 34.8546 46.095 35.1566C46.095 35.3579 46.4288 39.9207 46.4288 43.0074C46.4288 46.094 44.4597 46.9328 43.3917 46.9328H40.9219V46.9999Z" fill="#0D1A20"/>
<path d="M42.7574 24.0515C41.3891 24.0515 40.3545 23.7495 40.1208 23.6824L40.5881 22.072C41.8229 22.4411 44.3594 22.7095 46.0282 21.3339C47.263 20.3609 47.9639 18.9183 48.2976 18.1466C48.331 18.1131 48.2976 18.0459 48.2643 18.0124C48.2643 18.0124 48.2309 17.9788 48.1975 18.0124C48.1641 18.0124 48.1641 18.0459 48.1308 18.0459C47.3298 19.5893 45.5943 22.2062 43.0912 22.2062C39.7871 22.2062 37.5176 19.388 37.4175 19.2538L38.7191 18.2137C38.7525 18.2473 40.6215 20.5287 43.0912 20.5287C44.7933 20.5287 46.1617 18.2473 46.6623 17.2743C46.8959 16.8381 47.263 16.5362 47.7303 16.402C48.1975 16.2678 48.6648 16.3013 49.0986 16.5362C49.8996 16.9723 50.2 17.9453 49.8663 18.7841C49.399 19.8912 48.5313 21.4681 47.0962 22.6424C45.7278 23.7831 44.1258 24.0515 42.7574 24.0515Z" fill="#0D1A20"/>
<path d="M36.4497 46.9998H33.9466C33.6796 46.9998 33.4126 46.8656 33.2791 46.6308C32.9787 46.1946 32.9454 45.6914 33.179 45.2216C33.5795 44.4164 34.8143 43.9132 35.7488 43.9132C36.0158 43.9132 36.116 43.6783 36.116 43.6783C36.116 43.6783 36.9503 41.1956 36.4163 38.9813C36.2161 38.1425 35.1815 37.3037 34.1135 36.4314C32.5449 35.1565 30.6091 33.5797 29.975 31.0634C29.0071 27.0709 28.64 23.4139 28.64 23.2797C28.6066 22.8771 28.8736 22.508 29.2408 22.3738C29.6413 22.2732 30.1419 22.2061 30.7426 22.2061C31.6771 22.2061 32.5449 22.3403 32.5782 22.3403C32.912 22.4074 33.1456 22.6422 33.2457 22.9442C34.247 26.5341 35.8823 30.5266 36.6166 31.835C37.1172 32.7409 39.3867 34.4855 40.7217 35.3578C40.9887 35.5256 41.1222 35.8611 41.0888 36.163C41.0888 36.1966 40.5882 40.0549 40.0542 43.108C39.4868 46.1946 37.451 46.9663 36.4497 46.9998ZM30.3421 23.9507C30.509 25.2256 30.8761 27.9096 31.5436 30.6943C32.0109 32.6402 33.5795 33.9152 35.1147 35.1565C36.4163 36.2301 37.6512 37.2366 37.9849 38.6122C38.6524 41.3298 37.6846 44.148 37.6512 44.2487C37.5511 44.5171 37.3508 44.819 37.0505 45.0874C37.5177 44.819 38.1184 44.2487 38.3521 42.8731C38.7526 40.491 39.1531 37.6393 39.3199 36.4985C38.2853 35.7604 35.849 33.9823 35.1481 32.7073C34.3137 31.2311 32.7785 27.4064 31.7773 23.9842C31.3768 23.9842 30.8094 23.9507 30.3421 23.9507Z" fill="#0D1A20"/>
<path d="M29.4409 23.2465C29.4409 23.2465 29.7747 26.9371 30.7759 30.9296C31.7438 34.9221 36.6165 36.3312 37.2172 38.8139C37.818 41.2966 36.8835 43.9807 36.8835 43.9807C36.8835 43.9807 36.6165 44.7523 35.7154 44.7523C34.8476 44.7523 33.4459 45.4569 33.9465 46.1279H36.4496C36.4496 46.1279 38.6523 46.1279 39.1863 43.0413C39.7203 39.9546 40.2209 36.1299 40.2209 36.1299C40.2209 36.1299 36.6499 33.7142 35.8822 32.3051C35.0812 30.896 33.4125 26.8029 32.4113 23.2465C32.4113 23.2465 30.5757 22.9446 29.4409 23.2465Z" fill="#0D1A20"/>
</svg>
