<svg width="28" height="24" viewBox="0 0 28 24" fill="none" xmlns="http://www.w3.org/2000/svg">
<path d="M19.4541 7.8928C16.8549 8.0278 14.5946 8.8111 12.7596 10.5808C10.9055 12.3687 10.0592 14.5596 10.2905 17.2756C9.27454 17.1505 8.34918 17.0128 7.41857 16.9349C7.09716 16.908 6.71575 16.9462 6.44351 17.0989C5.53983 17.6058 4.67352 18.1782 3.64671 18.8162C3.83511 17.9691 3.95706 17.2273 4.17294 16.5138C4.33172 15.9894 4.25818 15.6975 3.77221 15.356C0.65197 13.1661 -0.663283 9.88872 0.32101 6.51455C1.23166 3.39309 3.46798 1.50004 6.50663 0.513227C10.6541 -0.833538 15.3151 0.540226 17.8371 3.81366C18.748 4.99608 19.3065 6.32321 19.4541 7.8928ZM7.49135 6.84143C7.51529 6.22428 6.97736 5.66829 6.33841 5.64972C5.68422 5.63062 5.14618 6.1276 5.12707 6.76843C5.10775 7.41791 5.60746 7.93837 6.26638 7.95501C6.9196 7.97145 7.4672 7.47383 7.49135 6.84143ZM13.7328 5.64929C13.0915 5.66103 12.5496 6.20401 12.561 6.8236C12.5727 7.46583 13.1043 7.96825 13.7637 7.96035C14.4249 7.95245 14.9263 7.4447 14.9201 6.78892C14.9146 6.14521 14.3854 5.63745 13.7328 5.64929Z" fill="#F9480B"/>
<path d="M25.2929 23.9998C24.4699 23.6355 23.7149 23.0889 22.9111 23.0054C22.1103 22.9223 21.2686 23.3815 20.4308 23.4667C17.879 23.7262 15.5929 23.0192 13.7078 21.2862C10.1227 17.9898 10.6349 12.9352 14.7828 10.2338C18.4693 7.83288 23.8758 8.63325 26.475 11.9646C28.7432 14.8716 28.4766 18.7305 25.7076 21.1726C24.9064 21.8794 24.618 22.461 25.1321 23.3927C25.227 23.5647 25.2379 23.7826 25.2929 23.9998V23.9998ZM15.9241 14.9824C16.448 14.9829 16.8795 14.5752 16.8993 14.0608C16.9203 13.5161 16.4796 13.0592 15.9309 13.057C15.3877 13.0545 14.9327 13.5178 14.9516 14.0544C14.9694 14.567 15.4038 14.9817 15.9241 14.9824ZM21.9637 13.0591C21.4553 13.0556 21.0233 13.4693 21.0026 13.98C20.9806 14.526 21.4075 14.9745 21.9511 14.9759C22.4769 14.9776 22.8924 14.5823 22.9115 14.0622C22.9319 13.5148 22.5047 13.0629 21.9637 13.0591V13.0591Z" fill="#F9480B"/>
</svg>
