<svg width="24" height="24" viewBox="0 0 24 24" fill="none" xmlns="http://www.w3.org/2000/svg">
<g opacity="0.8">
<path fill-rule="evenodd" clip-rule="evenodd" d="M5.29304 19.4351C4.90252 19.0446 4.90252 18.4114 5.29304 18.0209L18.021 5.293C18.4115 4.90247 19.0447 4.90247 19.4352 5.293C19.8257 5.68352 19.8257 6.31669 19.4352 6.70721L6.70726 19.4351C6.31673 19.8257 5.68357 19.8257 5.29304 19.4351Z" fill="#0D1A20"/>
<path fill-rule="evenodd" clip-rule="evenodd" d="M5.29289 5.2928C5.68342 4.90228 6.31658 4.90228 6.70711 5.2928L19.435 18.0207C19.8256 18.4112 19.8256 19.0444 19.435 19.4349C19.0445 19.8255 18.4113 19.8255 18.0208 19.4349L5.29289 6.70701C4.90237 6.31649 4.90237 5.68332 5.29289 5.2928Z" fill="#0D1A20"/>
</g>
</svg>
